<?xml version="1.0" encoding="utf-8"?>
<!-- Generator: Adobe Illustrator 19.0.0, SVG Export Plug-In . SVG Version: 6.00 Build 0)  -->
<svg version="1.1" id="Layer_1" xmlns="http://www.w3.org/2000/svg" xmlns:xlink="http://www.w3.org/1999/xlink" x="0px" y="0px"
	 viewBox="131 -131 512 512" style="enable-background:new 131 -131 512 512;" xml:space="preserve">
<g id="XMLID_2_">
	<path fill="#555555" id="XMLID_9_" d="M609-97c-30.7-30.7-67.4-42.7-82.8-27.3l-55.5,55.5c15.4-15.4,52.9-2.6,82.8,27.3
		c30.7,30.7,42.7,67.4,27.3,82.8l55.5-55.5C651.7-28.7,639.7-66.3,609-97z M533-21c-30.7-30.7-67.4-42.7-82.8-27.3l-20.5,20.5
		c15.4-15.4,52.9-2.6,82.8,27.3c30.7,30.7,42.7,67.4,27.3,82.8l20.5-20.5C575.7,47.3,562.9,9.7,533-21z M491.2,20.8
		c-30.7-30.7-67.4-42.7-82.8-27.3L387.1,14c15.4-15.4,52.9-2.6,82.8,27.3c30.7,30.7,42.7,67.4,27.3,82.8l20.5-20.5
		C533.9,89.1,521.9,51.5,491.2,20.8z M449.4,62.6c-30.7-30.7-67.4-42.7-82.8-27.3L251.4,149.7l-23,23c15.4,15.4,37.6,18.8,54.6,11.1
		c1.7,11.1,6,22.2,14.5,30.7s19.6,13.7,30.7,14.5c-7.7,17.1-4.3,39.3,11.1,54.6l23-23l115.2-115.2C492.9,130,480.1,93.3,449.4,62.6z
		 M261.6,205.2c-17.1,7.7-39.3,4.3-54.6-11.1L131,381l186.9-76c-15.4-15.4-18.8-37.6-11.1-54.6c-11.1-0.9-21.3-6-30.7-14.5
		C267.6,226.5,262.5,216.3,261.6,205.2z"/>
</g>
</svg>
